#!OML:ASF G:\JayActor3\Patient Classification 1\Patient 1\Session 6\male.ASF
:FULLY-SPECIFIED
:DEGREES
843
root 14.4927 15.512 -4.85607 4.05221 -62.918 -7.73302
lowerback 22.7347 -2.08948 -5.22923
upperback 8.46007 -4.65131 -5.88157
thorax -3.48926 -2.49895 -2.18462
lowerneck -1.35005 2.95803 4.7684
upperneck 18.7547 3.66553 -2.37927
head 6.02788 1.76653 -1.36101
rclavicle 8.18993e-014 -3.18055e-014
rhumerus -26.8173 15.721 -84.2903
rradius 125.903
rwrist 13.9276
rhand 20.1609 -18.8295
rfingers 7.12502
rthumb 44.685 -42.452
lclavicle 8.18993e-014 -3.18055e-014
lhumerus -30.3511 -5.50656 73.9744
lradius 121.232
lwrist 2.54281
lhand -1.29044 35.9537
lfingers 7.12502
lthumb 24.3538 64.4263
rfemur -41.3989 -6.84166 17.6999
rtibia 40.7699
rfoot -27.3447 -14.1008
rtoes -19.5722
lfemur -1.99262 20.7147 -6.76874
ltibia 38.3391
lfoot -26.7034 7.85021
ltoes -6.31339
844
root 14.3578 15.5024 -4.84883 3.60565 -62.6294 -7.28441
lowerback 22.5622 -2.2113 -5.18615
upperback 8.32707 -4.78365 -5.89882
thorax -3.55391 -2.55604 -2.19727
lowerneck -1.51885 2.9306 4.75674
upperneck 18.8315 3.61659 -2.32642
head 6.0783 1.74583 -1.34276
rclavicle -3.18055e-015 3.49861e-014
rhumerus -26.8805 15.6324 -84.379
rradius 126.031
rwrist 14.0155
rhand 19.9889 -18.753
rfingers 7.12502
rthumb 44.5247 -42.4373
lclavicle -3.18055e-015 3.49861e-014
lhumerus -30.7947 -5.71375 74.0877
lradius 121.116
lwrist 2.61981
lhand -1.19828 36.0239
lfingers 7.12502
lthumb 24.4421 64.4846
rfemur -40.644 -6.11941 17.1308
rtibia 40.0712
rfoot -27.4097 -14.1425
rtoes -19.2725
lfemur -1.12921 20.4395 -6.56361
ltibia 37.6472
lfoot -26.7001 7.70562
ltoes -6.65175
845
root 14.2217 15.4888 -4.84242 3.17072 -62.3339 -6.84003
lowerback 22.4347 -2.33279 -5.11957
upperback 8.16505 -4.91677 -5.92248
thorax -3.67543 -2.61146 -2.22697
lowerneck -1.69108 2.90715 4.74691
upperneck 18.928 3.56976 -2.25875
head 6.13562 1.72719 -1.32001
rclavicle 4.6118e-014 3.18055e-014
rhumerus -27.0088 15.5498 -84.4963
rradius 126.182
rwrist 14.1393
rhand 19.8134 -18.6747
rfingers 7.12502
rthumb 44.3612 -42.4216
lclavicle 4.6118e-014 3.18055e-014
lhumerus -31.2776 -5.92252 74.1988
lradius 121.01
lwrist 2.69143
lhand -1.11766 36.0915
lfingers 7.12502
lthumb 24.5194 64.5418
rfemur -39.9391 -5.46677 16.637
rtibia 39.5518
rfoot -27.4171 -14.2029
rtoes -19.0694
lfemur -0.297354 20.1704 -6.34821
ltibia 37.0005
lfoot -26.709 7.53957
ltoes -7.02667
846
root 14.0843 15.4715 -4.837 2.74501 -62.0332 -6.39483
lowerback 22.3072 -2.44767 -5.05562
upperback 8.0029 -5.04185 -5.93854
thorax -3.7961 -2.66324 -2.24911
lowerneck -1.86121 2.88914 4.72715
upperneck 19.0055 3.53081 -2.18624
head 6.18665 1.71239 -1.29362
rclavicle -2.62396e-014 -3.18055e-014
rhumerus -27.1548 15.4757 -84.6093
rradius 126.356
rwrist 14.275
rhand 19.6523 -18.6082
rfingers 7.12502
rthumb 44.211 -42.4119
lclavicle -2.62396e-014 -3.18055e-014
lhumerus -31.7552 -6.11005 74.3302
lradius 120.902
lwrist 2.75074
lhand -1.07352 36.1539
lfingers 7.12502
lthumb 24.5617 64.5984
rfemur -39.2948 -4.90891 16.2298
rtibia 39.2153
rfoot -27.3436 -14.305
rtoes -19.0093
lfemur 0.502668 19.9215 -6.1211
ltibia 36.3965
lfoot -26.7245 7.34899
ltoes -7.44665
847
root 13.9461 15.452 -4.83291 2.34314 -61.7302 -5.96099
lowerback 22.1501 -2.55226 -5.00628
upperback 7.86032 -5.15242 -5.93669
thorax -3.8773 -2.70958 -2.24971
lowerneck -2.03037 2.87542 4.69512
upperneck 19.0404 3.50127 -2.12129
head 6.22422 1.70142 -1.267
rclavicle 3.10104e-014 8.5875e-014
rhumerus -27.2813 15.41 -84.7011
rradius 126.548
rwrist 14.4094
rhand 19.5137 -18.5537
rfingers 7.12502
rthumb 44.0818 -42.406
lclavicle 3.10104e-014 8.5875e-014
lhumerus -32.1947 -6.25578 74.4915
lradius 120.789
lwrist 2.77799
lhand -1.06302 36.1973
lfingers 7.12502
lthumb 24.5718 64.6404
rfemur -38.7305 -4.44903 15.9151
rtibia 39.0733
rfoot -27.186 -14.415
rtoes -18.9688
lfemur 1.26976 19.7013 -5.87569
ltibia 35.8251
lfoot -26.7339 7.12984
ltoes -7.89566
848
root 13.8078 15.4319 -4.83048 1.964 -61.4212 -5.52694
lowerback 21.9635 -2.64779 -4.97482
upperback 7.73337 -5.25105 -5.92061
thorax -3.92318 -2.75146 -2.23028
lowerneck -2.18351 2.86591 4.67159
upperneck 19.0233 3.48206 -2.07623
head 6.24341 1.69525 -1.24766
rclavicle -8.11041e-014 -6.67916e-014
rhumerus -27.3909 15.3498 -84.7787
rradius 126.759
rwrist 14.5296
rhand 19.4047 -18.5195
rfingers 7.12502
rthumb 43.9801 -42.4098
lclavicle -8.11041e-014 -6.67916e-014
lhumerus -32.5996 -6.36423 74.6799
lradius 120.673
lwrist 2.7819
lhand -1.08308 36.2334
lfingers 7.12502
lthumb 24.5526 64.6792
rfemur -38.2876 -4.12117 15.6876
rtibia 39.1476
rfoot -26.9315 -14.4694
rtoes -18.8563
lfemur 1.99395 19.5137 -5.62162
ltibia 35.2731
lfoot -26.7204 6.87842
ltoes -8.36345
849
root 13.6705 15.4129 -4.82982 1.62371 -61.109 -5.10879
lowerback 21.7457 -2.73364 -4.95557
upperback 7.63066 -5.33489 -5.88553
thorax -3.92333 -2.78782 -2.19014
lowerneck -2.32564 2.85877 4.65065
upperneck 18.945 3.47143 -2.05145
head 6.24185 1.69269 -1.23477
rclavicle -1.27222e-014 -5.40694e-014
rhumerus -27.4588 15.2919 -84.8322
rradius 126.978
rwrist 14.628
rhand 19.334 -18.4871
rfingers 7.12502
rthumb 43.9141 -42.4019
lclavicle -1.27222e-014 -5.40694e-014
lhumerus -32.9496 -6.42231 74.9033
lradius 120.554
lwrist 2.759
lhand -1.11659 36.2624
lfingers 7.12502
lthumb 24.5205 64.7125
rfemur -38.0077 -3.93276 15.539
rtibia 39.4586
rfoot -26.5728 -14.4234
rtoes -18.6053
lfemur 2.67389 19.3411 -5.36198
ltibia 34.726
lfoot -26.669 6.6219
ltoes -8.8655
850
root 13.5353 15.3965 -4.83083 1.36137 -60.8016 -4.7496
lowerback 21.545 -2.81568 -4.91298
upperback 7.52536 -5.40967 -5.83424
thorax -3.93506 -2.8193 -2.14724
lowerneck -2.45166 2.85592 4.63521
upperneck 18.8321 3.46939 -2.03792
head 6.22711 1.69419 -1.22605
rclavicle -6.36111e-015 1.59028e-014
rhumerus -27.5211 15.245 -84.8841
rradius 127.202
rwrist 14.7003
rhand 19.2986 -18.4656
rfingers 7.12502
rthumb 43.8811 -42.3927
lclavicle -6.36111e-015 1.59028e-014
lhumerus -33.2891 -6.43478 75.1505
lradius 120.451
lwrist 2.71943
lhand -1.14732 36.2871
lfingers 7.12502
lthumb 24.491 64.7412
rfemur -37.9221 -3.86505 15.4677
rtibia 40.0103
rfoot -26.1145 -14.2754
rtoes -18.1567
lfemur 3.30858 19.167 -5.08442
ltibia 34.1769
lfoot -26.5754 6.36634
ltoes -9.35957
851
root 13.4031 15.383 -4.83296 1.17727 -60.513 -4.45519
lowerback 21.3805 -2.89336 -4.83893
upperback 7.41558 -5.4749 -5.76574
thorax -3.97095 -2.84539 -2.10396
lowerneck -2.57055 2.85935 4.60733
upperneck 18.6943 3.47796 -2.0256
head 6.2034 1.7001 -1.21507
rclavicle -4.6118e-014 -3.18055e-014
rhumerus -27.5736 15.2142 -84.932
rradius 127.426
rwrist 14.7486
rhand 19.2967 -18.4443
rfingers 7.12502
rthumb 43.8793 -42.372
lclavicle -4.6118e-014 -3.18055e-014
lhumerus -33.6239 -6.38832 75.4226
lradius 120.369
lwrist 2.67169
lhand -1.16359 36.3178
lfingers 7.12502
lthumb 24.4754 64.774
rfemur -38.035 -3.88408 15.4504
rtibia 40.7768
rfoot -25.5604 -14.0569
rtoes -17.4933
lfemur 3.90498 18.9757 -4.79692
ltibia 33.6239
lfoot -26.4429 6.13797
ltoes -9.84881
